<?xml version="1.0" standalone="no"?>
<!DOCTYPE svg PUBLIC "-//W3C//DTD SVG 20010904//EN"
 "http://www.w3.org/TR/2001/REC-SVG-20010904/DTD/svg10.dtd">
<svg version="1.0" xmlns="http://www.w3.org/2000/svg"
 width="1000.000000pt" height="1000.000000pt" viewBox="0 0 1000.000000 1000.000000"
 preserveAspectRatio="xMidYMid meet">
<metadata>
Created by potrace 1.14, written by Peter Selinger 2001-2017
</metadata>
<g transform="translate(0.000000,1000.000000) scale(0.100000,-0.100000)"
fill="#000000" stroke="none">
<path d="M4930 8919 c-19 -4 -127 -25 -240 -48 -113 -22 -236 -47 -275 -55
-38 -9 -110 -23 -160 -32 -49 -9 -100 -18 -112 -20 -13 -2 -100 -20 -195 -40
-95 -20 -191 -39 -213 -44 -22 -5 -103 -20 -180 -34 -297 -54 -458 -91 -415
-97 8 -1 -3 -5 -25 -9 -22 -4 -65 -13 -95 -19 -30 -6 -68 -14 -85 -17 -16 -3
-58 -11 -93 -19 -74 -18 -93 -19 -72 -5 11 8 5 9 -22 7 -31 -4 -69 -31 -240
-178 -112 -96 -223 -189 -248 -208 -46 -36 -90 -74 -168 -148 -25 -24 -48 -43
-51 -43 -3 0 -35 -28 -71 -62 -101 -96 -172 -160 -300 -268 -78 -66 -110 -95
-173 -154 -54 -52 -183 -156 -192 -156 -3 0 -43 -33 -88 -72 -45 -40 -102 -89
-125 -109 -23 -20 -42 -41 -42 -46 0 -15 -47 -56 -57 -50 -27 17 -61 -74 -36
-95 8 -7 29 -42 45 -78 17 -36 57 -120 89 -188 33 -68 59 -126 59 -129 0 -4 6
-14 14 -22 8 -9 35 -63 61 -121 71 -162 74 -166 90 -180 8 -7 15 -16 15 -21 0
-9 52 -120 236 -506 24 -50 44 -93 44 -96 0 -5 65 -143 205 -432 42 -88 88
-185 102 -215 14 -30 29 -57 32 -60 4 -3 15 -25 24 -50 10 -25 30 -70 47 -100
16 -30 44 -84 62 -120 35 -69 51 -90 66 -90 5 0 15 -7 22 -15 20 -24 30 -17
19 12 -9 26 -9 26 8 11 14 -12 43 -16 128 -18 61 -1 182 -3 270 -5 88 -2 311
-7 495 -11 184 -3 387 -8 450 -9 63 -2 187 -4 275 -5 178 -2 175 1 67 -61 -25
-15 -53 -39 -61 -55 -36 -67 -121 -192 -134 -197 -7 -3 -45 -8 -83 -12 -152
-15 -159 -20 -379 -240 -109 -109 -165 -185 -165 -223 0 -14 -31 -37 -122 -87
-147 -81 -323 -198 -511 -340 -32 -24 -62 -37 -95 -41 -26 -4 -90 -17 -142
-29 -52 -13 -129 -26 -170 -30 -138 -12 -220 -43 -245 -91 -5 -11 -31 -51 -57
-89 -162 -243 -358 -708 -382 -906 l-7 -56 48 -30 c86 -55 101 -49 229 80 151
153 272 269 278 265 2 -2 31 22 63 52 55 51 81 73 198 170 23 19 53 44 66 55
13 11 44 35 69 54 25 19 47 38 48 43 4 9 239 178 249 178 3 0 49 29 102 63
195 129 299 183 442 230 57 19 135 46 173 61 39 14 71 24 72 23 2 -1 -18 -25
-44 -53 -59 -64 -171 -220 -178 -250 -5 -18 -21 -28 -70 -44 -35 -12 -77 -34
-94 -50 -16 -15 -30 -26 -30 -24 0 1 -12 -8 -26 -21 -66 -61 -113 -214 -153
-499 -6 -38 -10 -72 -9 -75 0 -3 0 -42 -1 -86 -1 -59 -4 -76 -12 -65 -12 18
-6 -121 17 -385 17 -200 38 -323 65 -384 10 -24 19 -49 19 -56 0 -7 8 -16 18
-21 23 -10 262 -11 262 -1 0 5 4 6 9 3 15 -9 31 19 35 60 2 22 13 68 25 103
13 36 24 77 26 93 4 30 27 99 52 157 8 18 16 43 18 55 3 25 44 137 56 151 4 6
10 22 12 36 3 14 16 48 30 75 13 27 37 83 53 124 16 41 32 77 36 78 5 2 8 9 8
16 0 16 29 74 40 81 5 3 28 40 51 83 23 42 55 96 71 119 15 23 28 45 28 49 0
4 11 22 25 40 14 18 25 35 25 39 0 7 236 347 302 435 89 117 103 135 140 166
7 6 24 26 38 45 14 19 53 62 87 97 52 53 68 63 105 68 24 3 84 15 135 25 51
11 112 19 135 19 24 -1 77 2 119 6 l76 7 11 -54 c6 -30 21 -97 32 -149 12 -52
27 -122 34 -155 8 -33 17 -71 20 -85 7 -24 3 -27 -40 -38 -44 -12 -82 -33
-129 -74 -11 -9 -32 -27 -47 -40 -37 -31 -43 -92 -42 -398 2 -274 16 -417 65
-618 16 -67 32 -139 35 -160 3 -20 7 -45 10 -55 3 -10 7 -30 9 -45 6 -43 14
-87 30 -154 8 -35 16 -74 19 -88 24 -135 54 -210 82 -210 4 0 27 -9 50 -21 53
-25 172 -37 211 -20 15 7 38 25 51 41 22 28 24 39 37 195 8 103 17 169 25 185
4 8 10 38 14 65 3 28 8 61 11 75 3 14 7 43 10 65 6 49 25 160 46 260 5 28 12
66 15 85 3 19 7 41 9 48 4 11 52 223 60 262 2 8 10 42 19 75 20 81 54 251 61
315 2 17 15 94 21 125 3 11 7 36 10 55 9 62 12 83 38 230 25 147 34 200 41
255 10 72 16 85 39 85 12 0 46 7 76 16 30 8 78 18 105 20 28 3 82 12 120 21
152 33 156 33 200 5 22 -14 42 -28 45 -32 3 -4 37 -28 75 -53 39 -26 75 -51
82 -57 7 -5 15 -10 18 -10 4 0 13 -6 20 -12 8 -7 29 -23 47 -35 54 -37 191
-140 213 -160 22 -20 80 -68 249 -211 61 -51 109 -94 106 -97 -3 -2 11 -16 30
-30 19 -14 49 -37 67 -51 36 -28 137 -172 177 -252 15 -30 48 -86 73 -125 71
-111 88 -141 165 -297 39 -80 75 -146 79 -148 5 -2 65 -117 134 -255 70 -139
135 -261 146 -273 11 -11 16 -23 13 -27 -4 -4 1 -9 10 -13 9 -3 14 -10 11 -15
-3 -4 7 -15 22 -23 23 -11 39 -12 78 -4 28 5 60 12 73 14 12 2 22 11 22 18 0
8 5 16 12 18 20 7 16 295 -7 453 -2 17 -7 125 -10 240 -3 116 -8 226 -11 245
-3 19 -7 64 -10 100 -6 89 -7 90 -13 90 -4 0 -13 33 -20 72 -15 83 -53 184
-89 240 -22 32 -52 51 -102 63 -39 10 -60 19 -60 25 0 7 -26 13 -120 27 -39 6
-63 21 -54 34 2 5 -2 22 -11 39 -8 16 -15 31 -14 32 0 2 -4 16 -10 31 -6 15
-14 40 -17 55 -8 33 -82 149 -138 217 -71 87 -186 215 -190 213 -2 -2 -28 24
-57 57 -63 70 -170 176 -225 222 -22 18 -50 42 -64 54 -14 12 -36 30 -49 40
-15 12 -25 32 -28 57 -9 83 -22 128 -54 200 -16 34 -29 64 -29 66 0 2 -8 21
-17 42 -9 22 -16 42 -15 47 1 4 -3 7 -9 7 -5 0 -7 5 -4 10 3 6 1 10 -4 10 -6
0 -11 10 -11 23 0 13 -9 33 -20 45 -11 12 -20 24 -20 27 0 18 -36 37 -88 47
l-59 11 16 51 c12 39 32 68 86 122 104 104 132 122 199 129 31 4 73 13 91 21
19 8 43 14 53 14 27 0 79 56 98 106 15 38 22 45 88 72 67 28 121 47 241 85 87
27 294 77 384 93 47 8 97 17 111 19 65 12 270 35 313 35 40 0 52 5 72 28 30
34 39 67 25 92 -6 11 -41 37 -78 59 -37 22 -79 52 -92 68 -36 41 -236 158
-289 168 -11 2 -28 8 -38 13 -34 17 -225 57 -328 67 -179 19 -302 16 -431 -9
-65 -13 -117 -55 -358 -287 -83 -81 -171 -164 -194 -186 l-44 -39 -61 13 c-34
7 -107 14 -162 14 -163 3 -245 -15 -277 -59 -7 -10 -42 -38 -78 -62 -98 -66
-213 -151 -230 -169 -31 -34 -107 -89 -160 -116 -67 -34 -132 -77 -182 -123
-31 -28 -43 -33 -65 -27 -115 30 -243 23 -412 -20 -52 -14 -96 -23 -99 -21 -2
3 8 17 22 31 14 14 26 28 26 31 0 7 139 160 226 250 65 66 175 189 220 244 16
19 31 37 34 40 11 9 184 208 224 257 21 27 67 80 101 118 34 39 75 85 90 103
15 17 30 30 35 27 4 -3 25 -7 46 -11 22 -3 53 -12 69 -19 25 -11 85 -27 146
-39 85 -17 137 -31 134 -37 -4 -5 56 -20 75 -18 3 0 18 -4 33 -10 15 -6 42
-13 59 -16 17 -3 43 -12 57 -19 31 -17 200 -66 225 -66 9 0 15 -4 12 -8 -3 -5
11 -14 31 -20 29 -9 40 -8 57 3 11 8 16 15 11 15 -5 0 6 12 23 26 18 15 32 31
32 36 0 5 17 27 38 49 64 67 86 93 103 119 9 14 34 43 55 66 22 23 53 58 69
80 17 21 41 49 55 63 14 14 36 43 50 63 13 20 28 35 31 32 7 -4 23 14 24 26 0
13 43 59 49 53 3 -3 6 0 6 7 0 7 16 28 35 47 19 19 35 37 35 42 0 4 11 18 25
31 14 13 25 29 25 37 0 7 7 13 15 13 8 0 15 4 15 8 0 4 18 28 41 52 22 25 45
55 50 68 5 12 15 22 23 22 22 0 46 43 34 64 -7 12 -6 22 3 32 10 12 8 18 -9
34 -12 11 -26 20 -32 20 -5 0 -11 8 -12 18 0 9 -2 22 -3 27 -2 6 -4 15 -5 20
-1 6 -2 13 -1 18 0 4 -3 7 -9 7 -5 0 -7 7 -4 15 3 8 -4 29 -17 46 -13 18 -18
29 -11 25 17 -10 15 3 -3 21 -8 8 -13 19 -10 24 4 5 2 9 -3 9 -6 0 -9 6 -8 13
1 17 -36 161 -44 167 -6 4 -43 140 -56 204 -2 11 -7 22 -11 25 -10 7 -50 153
-52 188 -1 6 -8 19 -17 27 -8 9 -13 16 -10 16 4 0 0 16 -8 35 -8 19 -13 35
-10 35 2 0 -2 16 -10 35 -16 38 -16 37 -16 60 0 10 -10 15 -30 15 -16 0 -30 3
-30 8 0 4 -17 8 -37 9 -20 1 -39 7 -43 13 -6 10 -38 20 -67 22 -7 1 -13 4 -13
8 0 3 -8 6 -17 7 -31 2 -108 26 -114 35 -3 5 -18 11 -34 14 -16 3 -33 8 -39
12 -6 3 -15 7 -21 7 -30 3 -86 19 -91 26 -3 5 -9 7 -14 4 -4 -3 -11 2 -14 11
-3 8 -10 13 -15 10 -5 -3 -28 1 -52 10 -24 8 -60 17 -79 20 -19 3 -40 10 -46
15 -6 5 -14 6 -17 2 -4 -3 -7 -1 -7 5 0 6 -15 14 -32 17 -18 4 -38 11 -44 17
-7 5 -16 8 -20 7 -5 -1 -11 0 -14 1 -16 6 -73 18 -89 19 -8 1 -11 4 -7 8 6 7
-53 28 -104 37 -8 2 -22 6 -30 9 -8 4 -28 9 -44 11 -16 3 -33 11 -37 17 -4 7
-27 14 -51 16 -45 5 -46 4 -121 -72 -43 -42 -77 -79 -77 -82 0 -3 -21 -28 -47
-55 -74 -77 -83 -88 -78 -88 2 0 -11 -15 -29 -32 -18 -18 -36 -41 -39 -50 -12
-34 -32 -18 -56 45 -13 34 -32 80 -42 101 -11 22 -19 48 -19 57 0 10 -3 19 -7
21 -5 2 -20 32 -35 68 -61 147 -73 175 -83 182 -5 4 -7 8 -3 8 3 0 -15 48 -41
108 -27 59 -56 134 -66 167 -9 33 -25 78 -35 100 -10 22 -37 85 -60 140 -46
109 -63 138 -73 128 -4 -3 -7 1 -7 11 0 9 5 14 10 11 6 -3 10 -1 10 4 0 6 -8
11 -18 11 -10 0 -22 4 -27 8 -6 5 -26 5 -45 1z m-2030 -7634 c13 -14 21 -25
18 -25 -2 0 -15 11 -28 25 -13 14 -21 25 -18 25 2 0 15 -11 28 -25z"/>
</g>
</svg>
