<svg width="95" height="32" viewBox="0 0 95 32" fill="none" xmlns="http://www.w3.org/2000/svg">
<path d="M34.9018 14.9609V20.6163H32.0953V15.5137C32.0953 14.9184 31.9252 14.7483 31.6701 14.7483C31.3724 14.7483 31.0323 15.0034 30.7346 15.5137V20.6163H27.9281V9.9858L30.7346 9.6881V13.6852C31.3724 13.0048 32.0103 12.7072 32.8607 12.7072C34.1364 12.6647 34.9018 13.5151 34.9018 14.9609ZM43.066 17.5973H38.5161C38.6862 18.7029 39.1965 18.873 40.0469 18.873C40.5997 18.873 41.11 18.6604 41.7478 18.1926L42.8959 19.7659C42.0455 20.4888 40.8974 20.914 39.7918 20.914C37.0279 20.914 35.7097 19.1706 35.7097 16.8319C35.7097 14.5782 36.9854 12.7073 39.4942 12.7073C41.7053 12.7073 43.1936 14.153 43.1936 16.7044C43.1511 16.917 43.1086 17.2996 43.066 17.5973ZM40.3871 15.8964C40.3871 15.131 40.217 14.4932 39.4941 14.4932C38.8988 14.4932 38.6011 14.8334 38.4736 16.024H40.3871V15.8964ZM43.8314 18.4052V9.9433L46.6379 9.6456V18.2776C46.6379 18.5327 46.7655 18.6603 46.9781 18.6603C47.0631 18.6603 47.1907 18.6603 47.2758 18.5753L47.7861 20.5738C47.2758 20.7439 46.7656 20.8289 46.2553 20.8289C44.682 20.9139 43.8314 19.9786 43.8314 18.4052ZM48.0836 18.4052V9.9433L50.8901 9.6456V18.2776C50.8901 18.5327 51.0177 18.6603 51.2303 18.6603C51.3153 18.6603 51.4429 18.6603 51.528 18.5753L52.0383 20.5738C51.528 20.7439 51.0178 20.8289 50.5075 20.8289C48.9342 20.9139 48.0836 19.9786 48.0836 18.4052ZM59.6921 16.7894C59.6921 19.2982 58.2038 20.8715 55.7801 20.8715C53.3989 20.8715 51.8681 19.4258 51.8681 16.7469C51.8681 14.2381 53.3564 12.6648 55.7801 12.6648C58.1613 12.6648 59.6921 14.1531 59.6921 16.7894ZM54.8021 16.7894C54.8021 18.3202 55.0998 18.873 55.8226 18.873C56.503 18.873 56.8431 18.2777 56.8431 16.7894C56.8431 15.2586 56.5454 14.7058 55.8226 14.7058C55.0998 14.7058 54.7595 15.3436 54.8021 16.7894ZM67.5161 19.043L66.9633 20.8714C65.9853 20.7864 65.3475 20.5312 64.9222 19.8083C64.3694 20.6587 63.519 20.9139 62.626 20.9139C61.0952 20.9139 60.1172 19.8934 60.1172 18.4901C60.1172 16.7892 61.3929 15.8537 63.7741 15.8537H64.3269V15.6411C64.3269 14.8757 64.0718 14.6631 63.2213 14.6631C62.5409 14.7056 61.9031 14.8332 61.2653 15.0458L60.67 13.2599C61.6055 12.8772 62.626 12.6646 63.6465 12.6646C66.0703 12.6646 67.0483 13.6001 67.0483 15.4711V18.1075C67.0483 18.6603 67.176 18.9154 67.5161 19.043ZM64.327 18.4477V17.2996H64.0293C63.2214 17.2996 62.8812 17.5547 62.8812 18.15C62.8812 18.5752 63.1363 18.8729 63.519 18.8729C63.8167 18.9154 64.1569 18.7453 64.327 18.4477ZM74.2346 13.6852L73.2566 15.216C72.7038 14.8758 72.1085 14.6632 71.4707 14.6632C71.003 14.6632 70.8329 14.7908 70.8329 15.0034C70.8329 15.2585 70.9179 15.3861 72.3637 15.8113C73.8094 16.279 74.5748 16.8744 74.5748 18.2776C74.5748 19.8509 73.0865 20.914 71.003 20.914C69.6848 20.914 68.4517 20.4463 67.6863 19.6809L69.0045 18.1926C69.5573 18.6178 70.2376 18.958 70.918 18.958C71.4283 18.958 71.7259 18.7879 71.7259 18.4903C71.7259 18.1076 71.5558 18.0226 70.2802 17.6399C68.877 17.2147 68.0691 16.4068 68.0691 15.1736C68.0691 13.8129 69.2597 12.7073 71.3433 12.7073C72.4489 12.6648 73.5542 13.0474 74.2346 13.6852ZM81.2508 13.6852L80.2728 15.216C79.72 14.8758 79.1247 14.6632 78.4869 14.6632C78.0192 14.6632 77.8491 14.7908 77.8491 15.0034C77.8491 15.2585 77.9341 15.3861 79.3799 15.8113C80.8256 16.279 81.591 16.8744 81.591 18.2776C81.591 19.8509 80.1027 20.914 78.0192 20.914C76.701 20.914 75.4679 20.4463 74.7025 19.6809L76.0207 18.1926C76.5735 18.6178 77.2538 18.958 77.9342 18.958C78.4445 18.958 78.7421 18.7879 78.7421 18.4903C78.7421 18.1076 78.572 18.0226 77.2964 17.6399C75.8932 17.2147 75.0853 16.4068 75.0853 15.1736C75.0853 13.8129 76.2759 12.7073 78.3595 12.7073C79.4651 12.6648 80.5279 13.0474 81.2508 13.6852ZM89.7126 16.7894C89.7126 19.2982 88.2243 20.8715 85.8006 20.8715C83.4194 20.8715 81.8886 19.4258 81.8886 16.7469C81.8886 14.2381 83.3769 12.6648 85.8006 12.6648C88.1818 12.6648 89.7126 14.1531 89.7126 16.7894ZM84.8226 16.7894C84.8226 18.3202 85.1203 18.873 85.8431 18.873C86.5235 18.873 86.8636 18.2777 86.8636 16.7894C86.8636 15.2586 86.5659 14.7058 85.8431 14.7058C85.1203 14.7058 84.78 15.3436 84.8226 16.7894Z" fill="white"/>
<path d="M10.154 21.5943C7.34748 18.3626 9.21848 10.1984 10.4091 10.1984C8.11288 10.1134 4.20088 11.6441 4.75368 17.1295C5.39148 22.2321 9.98388 25.804 15.0015 25.1662C16.6173 24.9536 18.1056 24.3158 19.3813 23.3378C14.959 26.527 11.9825 23.6779 10.154 21.5943Z" fill="url(#paint0_linear_300_36)"/>
<path d="M20.4869 16.0665C18.1482 20.7864 10.962 22.785 10.1541 21.5518C11.5573 23.6354 15.0441 26.4844 19.4239 23.2527C23.421 20.1486 24.1438 14.3231 21.0397 10.2835C20.0617 9.0078 18.7435 8.0298 17.2552 7.392C22.2303 9.6457 21.72 13.6002 20.4869 16.0665Z" fill="url(#paint1_linear_300_36)"/>
<path d="M10.4091 10.1984C15.4692 9.64559 21.2097 14.8758 20.4868 16.109C21.89 13.6427 22.2302 9.6882 17.2976 7.4345C12.5777 5.521 7.21992 7.81719 5.34892 12.5797C4.75362 14.068 4.54102 15.6838 4.75362 17.2571C4.41342 11.8143 8.53822 10.3685 10.4091 10.1984Z" fill="url(#paint2_linear_300_36)"/>
<defs>
<linearGradient id="paint0_linear_300_36" x1="6.50718" y1="11.4648" x2="14.9897" y2="25.9895" gradientUnits="userSpaceOnUse">
<stop offset="0.25" stop-color="white"/>
</linearGradient>
<linearGradient id="paint1_linear_300_36" x1="13.1213" y1="24.2155" x2="21.8984" y2="10.1492" gradientUnits="userSpaceOnUse">
<stop offset="0.21" stop-color="white"/>
</linearGradient>
<linearGradient id="paint2_linear_300_36" x1="6.05092" y1="10.5514" x2="20.6838" y2="15.818" gradientUnits="userSpaceOnUse">
<stop offset="1" stop-color="white"/>
</linearGradient>
</defs>
</svg>
