<?xml version="1.0" standalone="no"?>
<!DOCTYPE svg PUBLIC "-//W3C//DTD SVG 20010904//EN"
 "http://www.w3.org/TR/2001/REC-SVG-20010904/DTD/svg10.dtd">
<svg version="1.0" xmlns="http://www.w3.org/2000/svg"
 width="2669.000000pt" height="1255.000000pt" viewBox="0 0 2669.000000 1255.000000"
 preserveAspectRatio="xMidYMid meet">

<g transform="translate(0.000000,1255.000000) scale(0.100000,-0.100000)"
fill="#000000" stroke="none">
<path d="M4635 10729 c-380 -49 -648 -291 -746 -674 -32 -125 -35 -217 -23
-910 6 -357 10 -651 10 -652 -1 -1 -132 125 -292 280 -354 345 -416 390 -629
450 -101 28 -297 34 -406 12 -296 -60 -553 -270 -664 -544 -52 -126 -68 -223
-62 -371 6 -159 28 -255 87 -374 78 -160 95 -177 791 -772 586 -501 649 -558
649 -585 l0 -29 -121 60 c-349 175 -633 194 -905 60 -342 -170 -536 -552 -470
-928 39 -222 134 -392 317 -568 88 -84 2108 -1894 2114 -1894 3 0 5 1029 5
2288 0 1482 4 2312 10 2357 13 87 55 180 110 239 23 25 320 282 661 573 l619
527 0 252 c0 139 -5 297 -10 353 -28 267 -127 483 -297 641 -180 168 -458 245
-748 209z"/>
<path d="M6592 9190 c-125 -33 -192 -77 -442 -289 -884 -750 -1196 -1020
-1226 -1064 -18 -26 -43 -73 -56 -105 l-23 -57 -3 -827 c-1 -456 0 -828 3
-828 13 0 2406 2033 2443 2076 52 61 104 158 131 248 71 233 4 494 -173 671
-69 70 -150 120 -250 158 -71 26 -96 31 -206 34 -101 2 -139 -1 -198 -17z"/>
<path d="M9257 8923 c-4 -3 -7 -582 -7 -1285 l0 -1278 210 0 210 0 0 545 0
545 490 0 490 0 0 200 0 200 -490 0 -490 0 0 335 0 335 625 0 625 0 0 205 0
205 -828 0 c-456 0 -832 -3 -835 -7z"/>
<path d="M15155 8683 c-24 -257 -39 -331 -81 -395 -42 -65 -107 -86 -316 -103
l-78 -7 0 -159 0 -159 194 0 195 0 3 -552 c4 -537 4 -555 25 -618 44 -129 129
-227 248 -286 121 -59 178 -69 380 -69 189 0 246 10 337 56 l38 19 0 166 0
166 -22 -6 c-141 -42 -219 -56 -303 -56 -148 0 -231 37 -278 123 -22 42 -22
46 -25 549 l-3 508 323 2 323 3 3 168 2 167 -325 0 -325 0 0 275 0 275 -154 0
-154 0 -7 -67z"/>
<path d="M13724 8239 c-163 -27 -337 -128 -434 -251 l-38 -47 -6 37 c-3 20 -6
79 -6 130 l0 92 -185 0 -185 0 0 -920 0 -920 200 0 200 0 0 545 c0 358 4 562
11 597 36 174 179 329 343 373 90 25 241 18 314 -15 65 -28 124 -93 151 -164
36 -97 41 -189 41 -772 l0 -564 201 0 200 0 -4 628 c-4 588 -5 633 -24 717
-50 220 -138 361 -278 448 -125 77 -338 113 -501 86z"/>
<path d="M16965 8239 c-244 -35 -447 -160 -582 -359 -204 -301 -218 -825 -30
-1160 52 -92 187 -233 272 -282 89 -51 187 -88 295 -110 139 -29 385 -21 519
16 176 49 322 139 435 269 l50 58 -122 122 -123 123 -73 -70 c-81 -79 -154
-126 -239 -156 -166 -59 -390 -46 -522 30 -65 37 -135 112 -170 180 -24 47
-65 184 -65 217 0 11 112 13 640 13 l640 0 10 26 c21 55 33 256 21 364 -15
139 -34 208 -87 318 -52 108 -146 215 -248 281 -156 102 -407 151 -621 120z
m290 -325 c151 -39 247 -142 281 -303 7 -36 14 -85 14 -108 l0 -43 -465 0
-465 0 0 23 c0 42 30 141 62 205 55 111 157 194 278 228 65 18 224 17 295 -2z"/>
<path d="M19028 8240 c-168 -30 -335 -128 -435 -252 l-38 -48 -3 130 -3 130
-189 0 -190 0 0 -920 0 -920 200 0 200 0 0 528 c0 312 4 553 10 592 14 88 66
193 129 263 40 42 75 68 139 100 l85 42 121 0 c95 0 132 -4 170 -19 103 -40
173 -139 195 -276 7 -40 11 -288 11 -647 l0 -583 200 0 200 0 0 583 c0 363 -4
616 -11 672 -41 337 -202 546 -469 610 -79 18 -258 27 -322 15z"/>
<path d="M20730 8235 c-190 -31 -352 -109 -479 -230 -67 -64 -151 -181 -151
-210 0 -8 126 -60 346 -142 6 -2 25 20 41 49 54 95 138 159 257 193 74 22 288
17 354 -7 109 -40 162 -107 162 -203 0 -31 -4 -65 -10 -75 -13 -24 -28 -28
-342 -100 -146 -33 -305 -74 -352 -90 -316 -106 -474 -291 -475 -555 -2 -151
47 -273 149 -375 119 -119 250 -170 461 -177 266 -10 456 52 593 194 l49 51
27 -57 c33 -68 78 -112 145 -143 45 -21 64 -23 185 -22 90 1 150 6 180 16 l45
15 3 157 3 158 -23 -8 c-49 -15 -95 -24 -136 -24 -35 0 -49 6 -73 29 l-29 29
0 437 c0 244 -5 478 -11 532 -36 325 -193 494 -514 553 -99 18 -310 21 -405 5z
m530 -1126 c0 -183 -1 -192 -25 -244 -32 -66 -123 -153 -200 -190 -84 -39
-185 -58 -276 -51 -146 12 -226 53 -270 137 -26 52 -26 177 0 234 24 55 108
127 178 156 54 22 536 146 576 148 16 1 17 -14 17 -190z"/>
<path d="M11573 8226 c-375 -72 -628 -332 -698 -720 -52 -292 -8 -586 123
-811 47 -81 190 -222 277 -273 79 -47 219 -96 315 -111 83 -14 237 -14 320 0
96 15 236 65 315 111 132 78 266 229 330 373 71 161 106 391 87 587 -26 274
-103 451 -266 614 -79 79 -106 98 -196 143 -58 28 -141 61 -185 72 -103 27
-319 34 -422 15z m389 -378 c197 -93 294 -289 292 -588 -2 -252 -70 -418 -217
-526 -81 -60 -163 -84 -288 -84 -250 0 -410 132 -481 398 -29 110 -29 334 1
445 42 160 130 282 248 345 84 44 121 52 254 49 109 -3 119 -5 191 -39z"/>
<path d="M21820 8196 c0 -3 163 -380 361 -838 350 -807 361 -835 366 -909 3
-46 1 -91 -6 -112 -18 -54 -83 -121 -143 -147 -48 -20 -64 -22 -168 -17 -63 2
-123 8 -133 12 -16 7 -17 -3 -15 -166 l3 -173 35 -9 c19 -4 94 -9 165 -9 286
-2 412 76 548 339 33 64 880 1936 914 2021 4 10 -40 12 -212 10 l-218 -3 -272
-654 c-150 -359 -275 -649 -278 -644 -3 5 -119 295 -257 644 -139 349 -254
640 -257 647 -4 9 -57 12 -219 12 -118 0 -214 -2 -214 -4z"/>
<path d="M23684 7367 c-2 -7 -3 -87 -2 -177 l3 -165 598 -3 597 -2 0 180 0
180 -595 0 c-477 0 -597 -3 -601 -13z"/>
<path d="M6735 6744 c-127 -21 -246 -71 -333 -142 -31 -25 -345 -292 -697
-593 -412 -352 -657 -567 -687 -606 -62 -79 -110 -170 -145 -273 l-28 -85 -3
-1043 -3 -1042 192 2 192 3 28 140 c73 364 196 649 396 918 121 163 490 520
1115 1079 311 279 582 529 602 556 282 384 101 921 -358 1061 -69 21 -212 34
-271 25z"/>
<path d="M18178 4910 c-2 -577 -3 -1103 -3 -1167 l0 -118 565 -3 c380 -2 591
1 644 8 155 22 277 82 385 191 78 78 132 164 168 274 25 72 27 94 27 225 0
133 -2 152 -28 225 -34 99 -82 179 -153 255 -48 52 -149 130 -185 143 -9 3 1
21 28 53 108 130 137 205 138 359 0 95 -4 121 -27 189 -77 221 -264 363 -537
406 -38 6 -267 10 -542 10 l-478 0 -2 -1050z m1034 682 c122 -60 176 -157 165
-293 -7 -80 -27 -133 -70 -177 -80 -84 -165 -102 -484 -102 l-243 0 0 306 0
306 283 -4 282 -3 67 -33z m88 -918 c186 -42 288 -182 278 -378 -9 -166 -104
-276 -275 -321 -45 -12 -127 -15 -390 -15 l-333 0 0 365 0 365 326 0 c259 0
339 -3 394 -16z"/>
<path d="M9761 5509 c-101 -14 -243 -61 -320 -106 -74 -44 -169 -142 -199
-204 -84 -174 -63 -378 52 -522 35 -45 127 -112 201 -150 82 -41 220 -86 395
-129 235 -57 320 -100 361 -179 42 -83 14 -202 -59 -252 -79 -55 -107 -62
-257 -62 -138 0 -142 1 -205 32 -104 51 -184 143 -231 265 l-21 57 -47 -18
c-25 -10 -104 -40 -174 -66 l-129 -48 6 -31 c10 -50 82 -187 128 -243 94 -113
235 -201 394 -245 69 -19 104 -22 274 -22 225 0 293 13 438 85 328 161 400
569 144 810 -110 104 -233 158 -557 243 -263 70 -364 143 -365 266 0 136 145
221 354 207 158 -10 257 -72 321 -199 19 -39 35 -80 35 -90 0 -12 5 -18 13
-16 6 3 88 33 180 68 195 73 185 57 116 198 -106 218 -342 346 -654 357 -66 2
-153 -1 -194 -6z"/>
<path d="M11590 5505 c-297 -47 -538 -232 -650 -501 -136 -327 -108 -769 65
-1040 112 -174 262 -286 472 -351 82 -25 100 -27 273 -27 174 0 191 2 275 28
327 100 532 336 601 692 22 109 24 347 5 454 -75 422 -332 685 -731 745 -114
18 -196 18 -310 0z m295 -350 c170 -45 291 -179 347 -384 30 -109 30 -342 0
-454 -75 -277 -295 -430 -559 -389 -213 33 -355 179 -409 417 -26 113 -24 321
5 428 52 196 178 337 341 381 73 19 201 20 275 1z"/>
<path d="M15392 5509 c-354 -46 -573 -249 -573 -530 0 -137 34 -230 119 -321
101 -108 260 -181 567 -258 208 -52 294 -88 343 -144 57 -66 66 -168 19 -238
-57 -84 -171 -123 -342 -116 -95 4 -118 8 -170 33 -102 49 -180 142 -238 287
l-15 36 -176 -66 c-205 -78 -194 -58 -119 -212 85 -175 241 -300 458 -366 85
-27 101 -28 285 -28 204 -1 243 5 380 55 126 47 251 152 304 257 93 184 68
405 -63 554 -95 108 -241 178 -520 253 -273 72 -366 116 -408 190 -33 58 -32
147 2 197 71 104 326 142 477 71 98 -47 160 -121 198 -236 9 -29 16 -37 29
-32 9 4 89 34 179 68 186 70 175 52 110 187 -48 99 -147 206 -240 259 -157 89
-393 128 -606 100z"/>
<path d="M20865 5506 c-258 -42 -456 -167 -588 -372 -190 -293 -208 -763 -42
-1099 118 -240 341 -401 619 -445 109 -18 331 -8 426 19 214 62 392 197 500
381 133 229 171 575 95 875 -84 333 -318 560 -648 631 -100 21 -266 26 -362
10z m267 -347 c185 -39 323 -190 373 -409 25 -109 23 -319 -4 -423 -75 -287
-289 -440 -558 -399 -256 39 -410 240 -430 562 -21 340 122 598 368 664 66 18
179 20 251 5z"/>
<path d="M23455 5513 c-334 -39 -544 -188 -600 -424 -19 -81 -19 -147 0 -227
55 -233 243 -359 696 -466 182 -43 285 -90 333 -149 27 -33 31 -48 34 -110 3
-66 1 -76 -26 -118 -24 -37 -45 -54 -98 -80 -68 -34 -70 -34 -209 -34 -131 0
-144 2 -198 27 -92 43 -161 117 -216 229 l-46 96 -173 -65 -174 -66 6 -30 c13
-69 86 -194 156 -269 105 -112 219 -178 387 -223 105 -29 417 -26 528 4 130
35 240 95 316 171 75 75 112 144 134 246 18 88 18 122 0 210 -26 121 -80 206
-180 282 -110 83 -234 135 -467 193 -199 51 -316 99 -366 152 -46 50 -64 134
-41 195 53 140 358 192 532 90 72 -43 133 -128 170 -239 6 -16 13 -15 84 11
218 80 273 104 273 118 0 26 -43 117 -88 186 -102 156 -287 257 -526 287 -77
10 -177 11 -241 3z"/>
<path d="M12873 4838 c3 -596 5 -638 24 -723 64 -279 185 -428 407 -502 75
-25 94 -27 246 -27 157 -1 169 1 240 28 110 41 208 106 288 191 l71 74 3 -127
3 -127 185 0 185 0 3 923 2 922 -200 0 -200 0 0 -542 c0 -433 -3 -557 -15
-611 -40 -189 -196 -344 -380 -378 -33 -6 -95 -9 -138 -5 -139 10 -233 69
-280 174 -42 97 -46 165 -47 780 l0 582 -201 0 -200 0 4 -632z"/>
<path d="M22142 4548 l3 -923 198 -3 197 -2 0 925 0 925 -200 0 -200 0 2 -922z"/>
<path d="M16617 4643 c-4 -3 -7 -84 -7 -180 l0 -173 598 2 597 3 0 175 0 175
-591 3 c-325 1 -594 -1 -597 -5z"/>
</g>
</svg>
