<svg width="350" height="350" viewBox="0 0 350 350" fill="none" xmlns="http://www.w3.org/2000/svg">
<path fill-rule="evenodd" clip-rule="evenodd" d="M115.743 237.656L115.719 237.653C115.727 237.654 115.735 237.655 115.743 237.656ZM110.649 248.443L110.651 248.472C110.65 248.463 110.649 248.453 110.649 248.443Z" fill="white"/>
<path fill-rule="evenodd" clip-rule="evenodd" d="M236.078 237.834L236.036 237.84C236.05 237.837 236.064 237.835 236.078 237.834Z" fill="white"/>
<path fill-rule="evenodd" clip-rule="evenodd" d="M115.743 237.656L115.719 237.653C113.989 237.523 112.269 237.453 110.589 237.453C110.299 237.453 110.058 237.704 110.078 238.004L110.649 248.443L110.651 248.472L111.158 254.863L111.628 255.584L114.415 259.923C114.437 260.202 114.583 260.474 114.878 260.644L175.864 295.724L175.854 295.73L236.838 260.644L236.868 260.627C237.266 260.399 239.531 259.103 239.551 258.831C239.912 258.274 240.709 255.203 240.559 254.863L241.076 248.473C241.077 248.463 241.078 248.454 241.078 248.443L241.649 238.033C241.669 237.723 241.418 237.484 241.118 237.484C239.458 237.534 237.768 237.654 236.078 237.834L236.036 237.84L233.109 238.214C230.239 238.654 227.449 239.264 224.889 240.064C216.019 242.834 216.569 233.964 217.679 230.634C218.419 228.424 221.339 225.483 225.819 223.113L228.779 221.734C230.308 221.104 231.978 220.544 233.748 220.104C239.218 218.734 241.878 214.084 243.118 210.714C243.138 210.664 243.149 210.614 243.149 210.564L244.781 177.79L175.087 139.399C174.87 139.331 110.563 175.526 107.065 177.52L106.918 177.604L108.458 209.014C108.465 209.036 111.02 217.886 119.878 220.104C121.048 220.394 122.169 220.733 123.239 221.113L126.279 222.354C131.619 224.834 135.148 228.184 135.958 230.634C137.068 233.964 137.618 242.834 128.748 240.064C125.768 239.134 122.469 238.454 119.109 238.024C119.101 238.023 119.093 238.022 119.086 238.021L115.743 237.656Z" fill="white"/>
<path d="M293.203 66.3551C274.963 38.8051 245.373 17.9351 245.373 17.9351C245.373 17.9351 249.353 12.4051 251.523 7.64506C253.693 2.89506 250.453 2.97506 250.453 2.97506C247.683 10.7351 241.023 7.96506 238.543 17.1251C236.053 26.2851 226.133 40.5751 226.133 40.5751C231.783 48.1551 236.383 59.9251 234.923 77.8051C234.623 81.4551 233.903 84.6051 232.843 87.3051C228.173 99.1651 213.263 103.475 203.133 95.7351C202.443 95.2051 201.773 94.6151 201.133 93.9651C195.603 87.5751 190.253 74.6751 194.583 63.6351C195.613 63.3151 197.293 62.9651 199.993 62.7651C203.463 62.4951 206.263 64.1051 207.953 65.4351C208.603 65.9451 209.543 65.4151 209.433 64.5851C208.523 57.8351 205.803 46.9751 197.453 45.8151C187.963 44.4951 177.093 47.3251 177.093 47.3251C176.393 47.5151 175.713 47.7151 175.063 47.9551C157.853 53.8551 159.263 52.1251 153.243 86.5451C152.673 89.8051 150.563 92.0851 148.713 93.9651C148.073 94.6151 147.403 95.2051 146.713 95.7351C136.583 103.465 121.683 99.1651 117.003 87.3051C115.943 84.5951 115.213 81.4551 114.923 77.8051C113.463 59.9251 118.063 48.1651 123.713 40.5751C123.713 40.5751 113.793 26.2851 111.303 17.1251C108.793 7.96506 102.143 10.7351 99.3733 2.97506C99.3733 2.97506 96.1333 2.89506 98.3133 7.64506C100.483 12.4051 104.463 17.9351 104.463 17.9351C104.463 17.9351 74.8733 38.8051 56.6333 66.3551C38.3833 93.8951 7.34328 142.495 19.5333 183.515L19.7733 183.625C23.4433 200.365 44.8133 209.585 54.6233 221.245C60.5433 228.525 64.9333 235.735 67.4533 244.635C67.6233 245.275 67.7233 245.455 67.8733 246.255C68.2233 248.065 68.7133 262.125 69.3133 263.865C76.8533 284.965 97.9333 284.415 114.403 297.315C125.183 305.515 125.423 308.605 132.153 320.415C135.143 325.625 137.393 331.335 138.883 337.375C138.593 335.535 138.283 333.695 137.943 331.855C135.543 319.965 132.403 307.385 123.583 298.585C114.863 289.655 102.763 284.715 92.3433 277.815C86.6233 274.025 81.0233 269.145 78.3433 262.505C76.9633 259.215 76.5133 255.655 76.4333 252.145C75.9633 242.885 75.6333 233.125 72.2633 224.575C68.9233 215.905 62.2833 209.045 54.9533 203.495C51.1533 200.495 47.0433 198.205 43.0633 195.355C39.0233 192.275 35.7933 188.095 33.8733 183.415C33.2933 181.965 32.8233 180.495 32.4533 179.005C32.3433 178.585 32.2433 178.165 32.1633 177.735C29.1333 163.865 33.8633 148.615 39.3533 136.005C40.6733 133.065 42.0833 130.185 43.6733 127.375L44.2533 127.695C37.6833 141.245 30.8733 161.025 34.6533 176.545C34.7833 177.065 34.9233 177.575 35.0733 178.085C37.1233 185.025 41.4533 191.015 49.0833 195.055C64.0033 203.895 76.1233 214.635 79.6633 232.375C81.0333 238.805 81.5233 245.305 82.0633 251.775C82.2333 254.645 82.6133 257.555 83.8333 260.165C86.2433 265.455 91.0633 269.095 96.0033 272.195C109.993 280.555 125.893 287.345 134.173 302.645C140.833 315.185 143.293 331.395 144.063 347.025C144.143 346.885 144.203 346.715 144.233 346.535C144.563 344.095 147.613 335.515 147.673 333.025C148.973 303.255 133.783 281.645 116.883 273.035C108.493 268.765 90.5033 262.515 90.3433 253.505C90.2733 252.545 90.5333 239.845 90.4533 238.795C90.4133 234.775 90.0433 230.515 89.2933 226.555C85.7733 207.435 79.2833 197.935 62.7333 189.485C60.1333 188.115 57.8233 184.305 55.6333 180.385C60.0933 184.985 66.1533 187.595 66.1533 187.595C66.1533 187.595 80.5333 190.835 87.4833 207.235C92.3033 218.615 91.6933 228.565 97.7033 233.555C100.073 235.535 103.483 236.735 108.673 236.955C109.273 236.985 109.903 236.995 110.563 236.995C112.483 236.995 114.273 237.025 115.933 237.105C116.743 237.135 117.533 237.185 118.293 237.225C122.463 237.485 125.663 237.895 128.013 238.135C127.163 237.605 126.273 237.135 125.393 236.685C123.523 235.755 121.553 234.995 119.533 234.455C118.803 234.255 118.073 234.085 117.333 233.935C115.683 233.615 114.003 233.435 112.323 233.415L110.203 233.395C109.613 233.385 109.043 233.335 108.493 233.245C104.663 232.665 101.843 230.365 99.7233 227.295C96.5833 222.735 95.0033 216.475 94.0233 211.595C93.0633 206.545 92.5533 201.495 92.3533 196.385C92.3333 196.035 92.3133 195.065 92.3133 194.735C92.3333 193.405 91.9733 192.115 91.3933 190.735C87.5133 182.315 78.9433 175.065 71.6233 169.555C69.3133 167.895 66.8133 166.185 64.9433 163.965C58.9933 157.365 58.2533 147.475 61.1933 139.375C58.7633 147.385 59.8533 156.975 65.9433 163.055C67.8933 165.125 70.2533 166.535 72.6533 168.085C76.2633 170.455 79.7633 173.055 83.0633 175.865C88.0833 180.355 95.0433 186.995 95.8933 194.025C96.1133 196.825 96.3933 199.645 96.8233 202.425C97.6433 207.425 99.1233 215.485 102.183 221.215C103.553 223.785 105.253 225.875 107.353 227.025C107.623 227.165 107.903 227.285 108.183 227.355C109.493 227.725 110.913 227.485 112.273 227.445C114.843 227.355 117.433 227.555 119.963 228.015C120.723 228.145 121.473 228.305 122.223 228.495C125.543 229.305 128.753 230.575 131.723 232.245C130.223 229.165 126.973 227.665 123.233 226.245C122.533 225.975 121.823 225.715 121.103 225.445C116.143 223.585 110.753 221.375 107.543 215.645C107.013 214.695 106.543 213.645 106.143 212.475C105.643 211.015 105.253 209.385 105.003 207.545C102.233 187.035 108.333 175.945 83.3833 160.975C83.3833 160.975 72.2933 139.905 97.7933 133.805C123.293 127.705 138.263 153.765 138.263 153.765L175.003 135.125L211.733 153.765C211.733 153.765 226.703 127.705 252.203 133.805C277.703 139.905 266.613 160.975 266.613 160.975C241.663 175.945 247.763 187.035 244.993 207.545C244.743 209.385 244.353 211.025 243.853 212.475C243.453 213.635 242.983 214.685 242.453 215.645C239.253 221.375 233.863 223.575 228.893 225.445C228.163 225.715 227.453 225.975 226.763 226.245C223.023 227.665 219.773 229.165 218.273 232.245C221.253 230.575 224.463 229.305 227.773 228.495C228.523 228.305 229.273 228.145 230.033 228.015C232.563 227.545 235.153 227.355 237.723 227.445C239.073 227.485 240.503 227.725 241.813 227.355C242.093 227.275 242.373 227.165 242.643 227.025C244.743 225.875 246.433 223.785 247.813 221.215C250.883 215.485 252.353 207.415 253.173 202.425C253.603 199.645 253.893 196.825 254.103 194.025C254.953 186.995 261.913 180.355 266.933 175.865C270.233 173.045 273.723 170.455 277.343 168.085C279.743 166.535 282.103 165.125 284.053 163.055C290.143 156.975 291.233 147.385 288.803 139.375C291.743 147.475 291.013 157.375 285.053 163.965C283.183 166.185 280.683 167.895 278.373 169.555C271.053 175.065 262.483 182.315 258.603 190.735C258.023 192.125 257.663 193.415 257.683 194.735C257.683 195.065 257.653 196.035 257.643 196.385C257.443 201.495 256.923 206.555 255.973 211.595C254.993 216.475 253.413 222.735 250.273 227.295C248.153 230.375 245.323 232.675 241.503 233.245C240.953 233.335 240.383 233.385 239.793 233.395L237.673 233.415C235.983 233.435 234.313 233.605 232.663 233.935C231.923 234.075 231.193 234.255 230.463 234.455C228.443 234.995 226.473 235.765 224.603 236.685C223.723 237.125 222.843 237.605 221.983 238.135C224.333 237.895 227.533 237.485 231.703 237.225C232.453 237.185 233.243 237.135 234.063 237.105C235.713 237.035 237.503 236.995 239.433 236.995C240.083 236.995 240.723 236.985 241.323 236.955C246.503 236.735 249.913 235.535 252.293 233.555C258.313 228.555 257.693 218.615 262.513 207.235C269.463 190.835 283.843 187.595 283.843 187.595C283.843 187.595 289.903 184.985 294.363 180.385C292.163 184.315 289.863 188.115 287.263 189.485C270.713 197.935 264.223 207.445 260.703 226.555C259.953 230.515 259.583 234.775 259.543 238.795C259.463 239.845 259.723 252.535 259.653 253.505C259.493 262.515 241.503 268.755 233.113 273.035C216.213 281.645 201.023 303.255 202.323 333.025C202.383 335.515 205.433 344.095 205.763 346.535C205.793 346.715 205.853 346.875 205.933 347.025C206.703 331.395 209.163 315.175 215.823 302.645C224.103 287.345 239.993 280.555 253.993 272.195C258.943 269.095 263.753 265.455 266.163 260.165C267.373 257.555 267.763 254.645 267.933 251.775C268.473 245.295 268.963 238.795 270.333 232.375C273.863 214.625 285.983 203.895 300.913 195.055C308.543 191.015 312.873 185.025 314.923 178.085C315.073 177.575 315.213 177.055 315.343 176.545C319.123 161.015 312.313 141.235 305.743 127.695L306.323 127.375C307.913 130.185 309.323 133.065 310.643 136.005C316.123 148.615 320.853 163.865 317.833 177.735C317.743 178.165 317.643 178.585 317.543 179.005C317.163 180.495 316.693 181.965 316.123 183.415C314.203 188.095 310.963 192.285 306.933 195.355C302.953 198.205 298.843 200.495 295.043 203.495C287.713 209.045 281.073 215.915 277.733 224.575C274.353 233.125 274.023 242.885 273.563 252.145C273.483 255.655 273.033 259.215 271.653 262.505C268.973 269.155 263.363 274.035 257.653 277.815C247.243 284.715 235.143 289.655 226.413 298.585C217.593 307.385 214.453 319.965 212.053 331.855C211.713 333.695 211.403 335.535 211.113 337.375C212.593 331.335 214.853 325.625 217.843 320.415C224.573 308.615 224.803 305.515 235.593 297.315C252.063 284.405 273.143 284.965 280.683 263.865C281.283 262.125 281.773 248.065 282.123 246.255C282.283 245.455 282.383 245.275 282.543 244.635C285.063 235.735 289.453 228.535 295.373 221.245C305.183 209.585 326.553 200.365 330.223 183.625L330.463 183.515C342.663 142.485 311.613 93.8951 293.373 66.3451L293.203 66.3551ZM175.053 58.3451C174.123 58.1051 170.333 57.5151 169.233 56.4151L181.983 52.6751C181.983 52.6751 179.443 59.4551 175.053 58.3451Z" fill="white"/>
</svg>
